<svg id="Слой_1" data-name="Слой 1" xmlns="http://www.w3.org/2000/svg" viewBox="0 0 196.06 45"><defs><style>.cls-1{fill:#d82635;}</style></defs><title>logo_kz</title><path class="cls-1" d="M64.61,15.47V20.3l4.29-4.83h5.75L69.2,21.09l6,9.31H69.36l-3.59-6-1.16,1.23v4.73H59.72V15.47h4.89m22.39,0h4.58V30.41H86.9V25.66l.25-3.82-5.4,8.57H77.17V15.47h4.69v4.75L81.61,24ZM99.39,19v3.32h2a2.27,2.27,0,0,0,1.41-.39,1.61,1.61,0,0,0,.56-1.35,1.29,1.29,0,0,0-.45-1,2.28,2.28,0,0,0-1-.45,5.74,5.74,0,0,0-1.14-.1Zm0,6.8v4.65H94.49V15.47h7.2a7.36,7.36,0,0,1,4.79,1.37,4.55,4.55,0,0,1,1.57,3.67,4.91,4.91,0,0,1-1.49,3.83,6.85,6.85,0,0,1-4.71,1.42Zm18.45-7a2.43,2.43,0,0,0-1.73.65,3.46,3.46,0,0,0-.9,1.57,6.84,6.84,0,0,0-.25,1.91,7.66,7.66,0,0,0,.24,2,3.59,3.59,0,0,0,.89,1.64,2.47,2.47,0,0,0,1.8.69,2.5,2.5,0,0,0,2.27-1.22,5.94,5.94,0,0,0,.68-3.07,6.4,6.4,0,0,0-.29-2,3.41,3.41,0,0,0-1-1.54A2.57,2.57,0,0,0,117.84,18.73Zm0-3.65a8.27,8.27,0,0,1,4.4,1.14,6.92,6.92,0,0,1,2.59,2.87,8.53,8.53,0,0,1,.85,3.77,8.62,8.62,0,0,1-1.05,4.32,6.86,6.86,0,0,1-2.79,2.7,8.54,8.54,0,0,1-4,.93,7.82,7.82,0,0,1-5.67-2.09,8.05,8.05,0,0,1-2.15-5.9,8.3,8.3,0,0,1,1-4.09A6.81,6.81,0,0,1,113.79,16,8.55,8.55,0,0,1,117.88,15.08Zm15.56,9.08v2.76h2.14a3.3,3.3,0,0,0,1.51-.27,1.14,1.14,0,0,0,.61-1.11,1.13,1.13,0,0,0-.77-1.18,5.82,5.82,0,0,0-1.93-.21Zm0-5.21v2.49h2a2,2,0,0,0,1.21-.33,1.16,1.16,0,0,0,.48-1q0-.84-.61-1a3.89,3.89,0,0,0-1.38-.15Zm-4.89,11.45V15.47h7.14a12.67,12.67,0,0,1,3.06.31,4.36,4.36,0,0,1,2.16,1.15,3.21,3.21,0,0,1,.82,2.29,3.51,3.51,0,0,1-.62,2,4.54,4.54,0,0,1-1.33,1.28,3.16,3.16,0,0,1,1.85,1.26,3.76,3.76,0,0,1,.64,2.16,3.82,3.82,0,0,1-1.76,3.5,8.89,8.89,0,0,1-4.67,1Zm29.84-9.23h-4.65a2.72,2.72,0,0,0-.81-1.81,2.65,2.65,0,0,0-1.85-.64,2.3,2.3,0,0,0-2,1.1,6,6,0,0,0-.73,3.26,7.88,7.88,0,0,0,.21,2,2.85,2.85,0,0,0,.86,1.49,2.78,2.78,0,0,0,1.87.59,2.27,2.27,0,0,0,1.78-.73,3.3,3.3,0,0,0,.73-1.8h4.71a6.82,6.82,0,0,1-2.25,4.54,7.34,7.34,0,0,1-4.88,1.64,8,8,0,0,1-5.81-2.12,7.9,7.9,0,0,1-2.11-5.76,8.59,8.59,0,0,1,1-4.18A6.9,6.9,0,0,1,147.1,16a7.63,7.63,0,0,1,3.78-1,8.12,8.12,0,0,1,5.32,1.61A6.46,6.46,0,0,1,158.39,21.17Zm6.94-5.7V20.3l4.29-4.83h5.74l-5.45,5.62,6,9.31h-5.87l-3.59-6-1.16,1.23v4.73h-4.89V15.47Zm21.72,0h4.58V30.41h-4.68V25.66l.25-3.82-5.4,8.57h-4.58V15.47h4.68v4.75L181.65,24Zm16.78,0h4.58V30.41h-4.69V25.66l.25-3.82-5.4,8.57H194V15.47h4.68v4.75L198.43,24ZM197.6,11.2h1.64a1.26,1.26,0,0,0,.81,1.08,3.76,3.76,0,0,0,1.41.21,2.75,2.75,0,0,0,1.46-.31,1.32,1.32,0,0,0,.6-1h1.62A3,3,0,0,1,204,13.58a4.29,4.29,0,0,1-2.61.79,4.15,4.15,0,0,1-2.62-.72A3.23,3.23,0,0,1,197.6,11.2Z" transform="translate(-12.35 -11.2)"/><path class="cls-1" d="M114,37.43a8.26,8.26,0,0,1,4.4,1.14A6.92,6.92,0,0,1,121,41.44a8.54,8.54,0,0,1,.85,3.77,8.62,8.62,0,0,1-1.05,4.32A6.85,6.85,0,0,1,118,52.22a8.54,8.54,0,0,1-4,.93,7.81,7.81,0,0,1-5.67-2.09,8,8,0,0,1-2.15-5.9,8.29,8.29,0,0,1,1-4.09,6.8,6.8,0,0,1,2.73-2.68,8.56,8.56,0,0,1,4.09-1m18.91,3.88H130v1.62a21.12,21.12,0,0,1-.25,3.52,8,8,0,0,1-1,2.83h4.15Zm-7.61-3.48h12.51V49.28h1.31V56.2h-4.69V52.76h-7V56.2h-4.69V49.28H124A11.08,11.08,0,0,0,125,46a26.18,26.18,0,0,0,.29-4.31ZM65.82,46.51V43.8h.41A3.78,3.78,0,0,0,68,43.49a1.25,1.25,0,0,0,.63-1.21,1.16,1.16,0,0,0-.59-1,2.85,2.85,0,0,0-1.51-.36,2.6,2.6,0,0,0-1.39.36,1.63,1.63,0,0,0-.74,1.12H60.34a5,5,0,0,1,1.09-2.83,5.47,5.47,0,0,1,2.35-1.61,8.73,8.73,0,0,1,3-.51,8.26,8.26,0,0,1,4.6,1.21,3.69,3.69,0,0,1,1.79,3.08,3.56,3.56,0,0,1-.61,2A3.91,3.91,0,0,1,71,45.06a4.31,4.31,0,0,1,1.85,1.2,3.48,3.48,0,0,1,.72,2.32,3.86,3.86,0,0,1-1.74,3.34,9.06,9.06,0,0,1-5.1,1.22,8,8,0,0,1-5-1.34,5.71,5.71,0,0,1-2-4.28h4.13a2.36,2.36,0,0,0,.78,1.6,3,3,0,0,0,1.92.54,3.31,3.31,0,0,0,1.87-.45A1.32,1.32,0,0,0,69,48.09a1.3,1.3,0,0,0-.82-1.29,5.09,5.09,0,0,0-2-.28Zm14.67,1.16h3.09L82,42.32Zm-.93-9.86h5l5.35,14.94H85l-.58-2H79.56l-.56,2H74.21Zm16.5,8.69v2.76H98.2A3.33,3.33,0,0,0,99.71,49a1.14,1.14,0,0,0,.61-1.11,1.13,1.13,0,0,0-.77-1.19,5.84,5.84,0,0,0-1.93-.2Zm0-5.21V43.8h2a2.05,2.05,0,0,0,1.21-.33,1.16,1.16,0,0,0,.47-1c0-.56-.22-.9-.61-1a3.92,3.92,0,0,0-1.39-.15ZM91.17,52.76V37.82H98.3a12.73,12.73,0,0,1,3.06.31,4.35,4.35,0,0,1,2.16,1.15,3.21,3.21,0,0,1,.82,2.29,3.51,3.51,0,0,1-.62,2,4.54,4.54,0,0,1-1.33,1.28,3.17,3.17,0,0,1,1.85,1.26,3.77,3.77,0,0,1,.64,2.16,3.83,3.83,0,0,1-1.76,3.5,8.88,8.88,0,0,1-4.67,1ZM114,41.08a2.44,2.44,0,0,0-1.73.65,3.48,3.48,0,0,0-.9,1.57,6.85,6.85,0,0,0-.26,1.91,7.61,7.61,0,0,0,.24,2,3.58,3.58,0,0,0,.89,1.64,2.47,2.47,0,0,0,1.8.69,2.5,2.5,0,0,0,2.27-1.22,5.94,5.94,0,0,0,.68-3.07,6.41,6.41,0,0,0-.29-2,3.42,3.42,0,0,0-1-1.54A2.56,2.56,0,0,0,114,41.08Z" transform="translate(-12.35 -11.2)"/><path class="cls-1" d="M48.7,36.32,34.18,21.86l14.49,7.79,0,6.66M33.54,17,19.17,31.49,26.88,17ZM19.06,34.29,31.46,21.84l12.4,12.41L31.45,46.7Zm-4.78-2.07L28.8,46.65l-14.52-7.7Zm15.1,19.23L43.93,36.9,36.08,51.45ZM50.62,40.06V28.58l-8.74-4.68-4.65-8.77H25.75L21.1,23.91l-8.74,4.68V40.06l8.77,4.67,4.62,8.64H37.23l4.62-8.64Z" transform="translate(-12.35 -11.2)"/></svg>